<svg xmlns="http://www.w3.org/2000/svg" viewBox="0 0 1728 453.543">
  <path fill="#000" fill-rule="nonzero" d="M333.8 355.71 C335.04 356.01 336.31 356.22 337.52 356.61 C391.45 373.78 446.73 382.52 503.31 382.2 C543.12 381.97 582.03 376.25 618.77 359.78 C630.72 354.43 641.82 347.72 651.02 338.3 C654.02 335.22 656.75 331.76 658.99 328.09 C664.9 318.39 664.05 307.67 657.02 298.72 C648.63 288.04 637.43 281.33 625.11 276.22 C599.27 265.49 572.15 261.72 544.42 262.06 C519.62 262.36 495.22 265.7 472.01 275.02 C466.81 277.12 461.71 279.86 457.17 283.13 C447.88 289.82 448.1 298.43 457.32 305.12 C465.71 311.22 475.39 314.21 485.37 316.44 C487.44 316.91 489.53 317.32 491.64 318.71 C486.88 318.94 482.13 319.24 477.37 319.38 C434.62 320.64 392.1 317.78 349.73 312.3 C303.4 306.31 257.71 297.05 213.02 283.36 C171.26 270.56 131.25 253.73 95.41 228.26 C66.3 207.57 42.03 182.14 22.34 152.34 C21.78 151.49 21.49 150.45 21.95 148.67 C23.16 149.56 24.41 150.4 25.57 151.35 C89.16 203.59 161.67 233.42 244.06 238.72 C291.3 241.76 337.89 237.05 384.23 228.22 C453.76 214.97 521.53 195.5 587.73 170.54 C595.64 167.55 603.23 163.62 610.72 159.66 C614.35 157.74 617.65 154.98 620.64 152.13 C629.8 143.42 629.51 132.09 619.93 123.87 C610.77 116.02 599.59 112.74 588.04 110.53 C560.49 105.25 532.93 107.06 505.45 110.99 C453.12 118.45 402.41 132.04 353.41 151.93 C352.18 152.43 350.93 152.87 349.66 153.27 C349.41 153.35 349.06 153.14 347.82 152.81 C349.51 151.39 350.75 150.25 352.08 149.24 C376.56 130.73 403.54 116.68 431.78 104.98 C522.75 67.29 617.61 53.19 715.51 59.92 C763.45 63.22 809.99 74.59 855.19 90.86 C891.37 103.88 927.16 117.99 963.3 131.14 C991.34 141.34 1019.87 149.83 1049.6 153.86 C1081.75 158.21 1113.79 156.18 1145.86 153.25 C1183.68 149.8 1221.48 146.04 1259.35 143.13 C1273.71 142.03 1288.23 142.96 1302.78 143.75 C1218.91 157.74 1140.29 188.55 1059.54 217.41 C1063.03 219.56 1065.39 221.14 1067.87 222.53 C1090.47 235.24 1115.06 240.38 1140.67 241.47 C1176.37 243 1210.3 234.56 1242.72 220.84 C1277.19 206.25 1310.95 189.94 1344.84 174 C1380.87 157.05 1417.91 143.32 1457.32 136.62 C1513.25 127.11 1566.83 135.54 1618.38 158.25 C1650.43 172.37 1679.32 191.18 1702.52 217.88 C1706.04 221.93 1709.13 226.35 1712.42 230.59 C1711.99 231.03 1711.57 231.48 1711.14 231.92 C1710.08 231.23 1708.89 230.67 1707.97 229.82 C1664.63 189.99 1613.03 168.29 1555.18 160.74 C1517.39 155.8 1480.3 158.43 1444.85 173.79 C1425.94 181.99 1408.85 192.75 1397.26 210.48 C1384.91 229.36 1387.78 250.75 1404.56 265.97 C1418.64 278.76 1435.82 284.87 1453.99 288.46 C1492.78 296.12 1530.63 291.5 1567.64 278.59 C1576.44 275.52 1584.92 271.58 1593.56 268.05 C1594.67 267.6 1595.83 267.25 1596.97 266.85 C1597.41 267.4 1597.85 267.95 1598.29 268.51 C1596.73 269.61 1595.03 270.56 1593.61 271.82 C1572.79 290.35 1548.32 302.08 1522.02 310.44 C1487.09 321.54 1451.33 323.78 1415.27 318.86 C1376.17 313.52 1337.28 306.68 1298.22 301.08 C1258.39 295.36 1218.52 293.98 1178.98 303.49 C1161.87 307.61 1145.37 313.39 1131.67 325 C1128.29 327.86 1125.23 331.35 1122.86 335.09 C1118.13 342.56 1118.49 350.27 1123.56 357.6 C1132.62 370.67 1146.18 377 1160.67 381.5 C1192.51 391.4 1224.86 391.3 1257 383.8 C1273.45 379.96 1289.33 373.65 1305.47 368.47 C1306.33 368.19 1307.22 368.04 1308.1 367.82 C1308.36 368.21 1308.62 368.59 1308.89 368.98 C1305.21 372.1 1301.75 375.53 1297.81 378.28 C1279.29 391.19 1258.81 399.77 1237.03 405.5 C1203.25 414.4 1168.94 415.58 1134.33 413.24 C1097.1 410.72 1060.65 403.94 1024.93 393.23 C1000.25 385.84 976.78 375.59 954.48 362.66 C953.5 362.09 952.6 361.4 951.71 359.71 C953.37 359.6 955.03 359.54 956.68 359.37 C979.04 357.13 1001.44 355.22 1023.72 352.39 C1030.13 351.58 1036.57 348.79 1042.33 345.66 C1049.66 341.68 1049.47 334.94 1042.44 330.3 C1033.86 324.64 1023.93 323.06 1014.04 321.55 C988.41 317.64 963.28 321.25 939.12 329.23 C910.23 338.78 881.75 349.67 853.53 361.07 C811.9 377.89 769.8 393.01 725.6 401.68 C662.72 414.03 599.37 416.88 535.53 411.8 C482.44 407.57 430.43 398.22 380.48 379.42 C365.42 373.75 351.21 365.84 336.63 358.92 C335.49 358.38 334.51 357.52 333.46 356.81 C333.58 356.45 333.69 356.08 333.8 355.71 Z"/>
</svg>
